<svg width="24" height="24" viewBox="0 0 24 24" fill="none" xmlns="http://www.w3.org/2000/svg">
<path d="M6.63423 3.06531V3.95878C6.63423 3.06531 6.63555 3.06531 6.63555 3.06531L6.63688 3.06531L6.63962 3.06532L6.64535 3.06537L6.65778 3.06559C6.6665 3.0658 6.67608 3.06613 6.68653 3.06661C6.70743 3.06759 6.73176 3.06922 6.75951 3.07183C6.81502 3.07703 6.88402 3.0861 6.96641 3.10155C7.13134 3.13248 7.34868 3.18871 7.61805 3.28972C8.09484 3.46852 8.73285 3.7869 9.53242 4.35226C11.752 3.97653 14.0251 3.97653 16.2446 4.35226C17.0442 3.78691 17.6822 3.46852 18.159 3.28972C18.4284 3.18871 18.6457 3.13248 18.8107 3.10155C18.893 3.0861 18.962 3.07703 19.0176 3.07183C19.0453 3.06922 19.0696 3.06759 19.0905 3.06661C19.101 3.06613 19.1106 3.0658 19.1193 3.06559L19.1317 3.06537L19.1374 3.06532L19.1402 3.06531L19.1415 3.06531C19.1415 3.06531 19.1428 3.06531 19.1428 3.95878V3.06531C19.5549 3.06531 19.9135 3.34707 20.011 3.74741C20.2633 4.78402 20.2914 5.86072 20.0952 6.90625C20.7085 7.90585 20.9991 9.06568 20.9297 10.2415C20.9161 13.3899 18.6339 15.3268 16.1218 15.866C16.4266 16.6323 16.5467 17.4671 16.4624 18.3015V20.0413C16.4624 20.5347 16.0624 20.9348 15.5689 20.9348H10.2081C9.71466 20.9348 9.31464 20.5347 9.31464 20.0413V19.5063C8.71775 19.6497 8.17179 19.6815 7.66543 19.6148C6.81701 19.503 6.17962 19.1274 5.68135 18.7283C5.4371 18.5326 5.21997 18.326 5.0338 18.1457L4.94343 18.058C4.78967 17.9085 4.66254 17.785 4.53392 17.6738C4.22934 17.4105 4.07405 17.3609 3.95378 17.3609C3.46032 17.3609 3.0603 16.9608 3.0603 16.4674C3.0603 15.9739 3.46032 15.5739 3.95378 15.5739C4.72697 15.5739 5.29651 15.971 5.70252 16.322C5.8743 16.4705 6.04504 16.6365 6.19759 16.7849L6.27715 16.8622C6.45845 17.0379 6.62454 17.1943 6.79855 17.3336C7.13679 17.6046 7.47607 17.7875 7.8989 17.8432C8.2336 17.8873 8.68067 17.8594 9.28849 17.6558C9.29793 17.2181 9.36247 16.7815 9.4825 16.3578C9.52997 16.1903 9.586 16.0258 9.65018 15.8649C7.14023 15.3242 4.86127 13.388 4.84735 10.2421C4.77678 9.07043 5.06845 7.90867 5.67779 6.91268C5.46695 5.86039 5.49759 4.7763 5.76969 3.73325C5.87232 3.33982 6.22764 3.06531 6.63423 3.06531Z" fill="white"/>
</svg>
