<svg width="24" height="24" viewBox="0 0 24 24" fill="none" xmlns="http://www.w3.org/2000/svg">
<path d="M13.4684 9.39985L15.1918 9.37538L16.3579 9.4124L16.2813 9.42566C16.1416 9.42776 15.9816 9.43079 15.8109 9.43402C15.8108 9.43402 15.8111 9.43402 15.8109 9.43402C14.9135 9.45101 13.7092 9.47381 13.4684 9.39985Z" fill="#090909"/>
<path d="M16.3579 9.4124L16.7332 9.42432C16.6402 9.42152 16.481 9.42265 16.2813 9.42566L16.3579 9.4124Z" fill="#090909"/>
<path fill-rule="evenodd" clip-rule="evenodd" d="M17.0383 3.03659C13.5902 2.65121 10.0255 2.65121 6.57734 3.03659C4.67894 3.24877 3.14775 4.74454 2.92493 6.6496C2.51265 10.1746 2.51265 13.7356 2.92493 17.2606C3.14775 19.1657 4.67894 20.6615 6.57734 20.8737C10.0255 21.259 13.5902 21.259 17.0383 20.8737C18.9367 20.6615 20.4679 19.1657 20.6907 17.2606C21.103 13.7356 21.103 10.1746 20.6907 6.6496C20.4679 4.74454 18.9367 3.24877 17.0383 3.03659ZM10.3712 6.7205L11.0748 6.6165V6.13324L11.3141 6.23723C11.4374 6.29841 11.5825 6.38405 11.626 6.4391C11.7058 6.52474 11.8364 6.51251 12.8953 6.36569C13.5481 6.27394 14.1647 6.18218 14.2662 6.16383C14.4258 6.13324 14.433 6.13936 14.317 6.20053C14.1502 6.29229 14.2372 6.4024 14.4258 6.34734C14.5491 6.31676 14.5708 6.32899 14.5346 6.40851C14.5148 6.44751 14.5325 6.47129 14.6742 6.48562C14.6742 6.48562 14.6631 6.79356 14.511 6.91319C14.366 7.02721 14.0214 7.02636 14.0214 7.02636C14.0214 7.02636 14.0758 7.06918 14.0758 7.15482C14.0758 7.24046 13.4321 7.39339 13.4321 7.39339C13.3958 7.38727 13.0839 7.42398 12.743 7.47903L12.1193 7.57691L12.1773 7.79101C12.1954 7.84904 12.2154 7.91648 12.2335 7.97758C12.2516 8.03875 12.2679 8.09381 12.2788 8.12746C12.3006 8.19475 12.3296 8.31709 12.3441 8.40274C12.3514 8.48838 12.4021 8.72695 12.4529 8.93494C12.5399 9.30809 12.5472 9.32032 12.772 9.32644C12.8846 9.33277 12.9389 9.33582 12.9391 9.34068C12.9392 9.34522 12.8921 9.35133 12.8011 9.36314C12.685 9.37538 12.598 9.4182 12.598 9.4549C12.598 9.51607 13.3886 9.46714 13.4684 9.39985C13.7092 9.47381 14.9135 9.45101 15.8109 9.43402C15.9816 9.43079 16.1416 9.42776 16.2813 9.42566L15.6719 9.53122L16.7332 9.42432C16.7332 9.42432 17.0215 9.41265 17.1956 9.4549C17.3308 9.48771 17.522 9.58337 17.522 9.58337L16.9295 9.64448L17.715 9.63071L17.8212 9.65677L17.522 9.70265C17.387 9.71493 17.1925 9.73153 16.9618 9.75123C15.9023 9.84167 14.0639 9.9986 13.5481 10.1156L13.345 10.1217C13.0694 10.14 12.743 10.1829 12.743 10.2012C12.743 10.2134 12.8373 10.7823 12.9534 11.4675C13.1782 12.7827 13.2725 13.4311 13.2653 13.633C13.258 13.7003 13.2943 13.7737 13.345 13.7981C13.3958 13.8226 13.3958 13.8471 13.3596 13.8471C13.2798 13.8471 13.3886 14.7769 13.4684 14.8442L13.6497 16.7222L13.6642 17.1993C13.6714 17.5664 13.6642 17.6214 13.6207 17.4318C13.5844 17.3033 13.5264 17.181 13.4829 17.1565C13.4393 17.132 13.3668 16.9363 13.3305 16.7222C13.2653 16.3674 13.258 16.4163 13.287 17.1198C13.3015 17.5541 13.2943 17.8478 13.2798 17.7621C13.1202 17.0158 12.9316 16.0309 12.8518 15.4926C12.7938 15.1378 12.6995 14.7524 12.6415 14.6362C12.5327 14.4282 12.5254 14.4343 12.5472 14.9604C12.5617 15.5844 12.4892 15.5416 12.4239 14.887C12.3949 14.6301 12.3368 14.3793 12.3006 14.3365C12.199 14.1958 12.2933 15.5477 12.4239 16.1105C12.4529 16.2083 12.4384 16.2389 12.3949 16.2022C12.3368 16.1533 12.2498 15.7312 12.054 14.52C12.0472 14.4803 12.0343 14.3971 12.018 14.2926C11.9991 14.1717 11.9758 14.0219 11.9524 13.8777C11.8509 13.2965 11.8364 13.1925 11.6986 12.1954C11.6405 11.7733 11.568 11.2105 11.539 10.9414C11.5172 10.6722 11.4737 10.4275 11.4592 10.4031C11.4157 10.3419 10.8282 10.397 10.3857 10.4948C10.2262 10.5315 9.93603 10.5682 9.73294 10.5744C9.6427 10.58 9.5506 10.5843 9.4736 10.588C9.38376 10.5922 9.31391 10.5955 9.29049 10.5988C9.20345 10.6049 8.9641 11.3145 8.81903 11.9813C8.76826 12.2138 8.68847 12.434 8.6377 12.4707C8.58693 12.5013 8.50714 12.7521 8.46362 13.0213C8.4201 13.2904 8.36208 13.5779 8.34032 13.6636C8.31856 13.7492 8.20976 14.2692 8.10096 14.8258C7.99216 15.3764 7.86886 15.8413 7.82534 15.8535C7.78182 15.8658 7.70203 16.037 7.65851 16.2389C7.61499 16.4408 7.54246 16.6182 7.51345 16.6365C7.47718 16.6549 7.44092 16.8139 7.44092 16.9852L7.4407 16.9896C7.42641 17.2789 7.42616 17.284 7.37564 17.0892L7.33212 16.8751L7.17255 17.3033L7.15804 16.9669L7.15738 16.9539C7.15285 16.8649 7.14935 16.7961 7.14794 16.7273C7.14315 16.4948 7.16215 16.2619 7.2454 15.2416L7.24564 15.2387L7.26684 14.9788C7.36838 13.7798 7.59323 11.7244 7.70929 10.9659L7.75281 10.6845L7.36838 10.7273C6.89692 10.7823 5.82345 10.7334 5.79443 10.66C5.79443 10.66 6.11025 10.4263 6.33843 10.3083C6.5939 10.1761 7.03474 10.036 7.03474 10.036L7.44092 9.96263L7.8471 9.89534L7.85435 9.62007C7.8616 9.09398 7.88336 9.01446 7.99216 9.01446C8.05744 9.01446 8.10096 8.9594 8.10096 8.86765C8.10096 8.67189 8.16624 8.64131 8.58693 8.63519C8.77551 8.63519 8.98585 8.61072 9.04388 8.58625C9.13092 8.54343 9.15993 8.5679 9.17444 8.68413C9.18169 8.76977 9.21796 8.886 9.26148 8.95329C9.33401 9.0634 9.23972 9.40596 9.10916 9.52831C8.97135 9.65677 9.05839 9.69959 9.35577 9.65677C9.83448 9.58948 9.87075 9.58336 9.9868 9.54666C10.0448 9.52219 10.364 9.47937 10.6976 9.44878C11.0313 9.4182 11.3141 9.38149 11.3214 9.37538C11.3359 9.36314 11.3141 9.13069 11.2851 8.86153C11.2489 8.59237 11.2053 8.18863 11.1836 7.95618C11.1793 7.9172 11.1761 7.88174 11.1732 7.84955C11.1613 7.72027 11.1543 7.64348 11.1053 7.60167C11.0337 7.54051 10.8722 7.55423 10.4744 7.58801C10.4044 7.59396 10.3261 7.60061 10.2407 7.60749C9.96504 7.63196 9.50809 7.6442 9.22521 7.63196C8.94234 7.62585 8.78276 7.63808 8.8553 7.66255C8.97135 7.69925 8.93508 7.72372 8.66671 7.77878C8.25328 7.86442 7.78907 7.87665 7.8471 7.79101C7.86886 7.76043 7.68027 7.73596 7.36838 7.73596H6.85341C6.85341 7.73596 6.55372 7.64474 6.54152 7.50961C6.52485 7.32503 7.071 7.35057 7.071 7.35057C7.31036 7.36281 7.44092 7.34445 7.41916 7.30775C7.39014 7.27716 7.43366 7.23434 7.49894 7.21599C7.73105 7.16094 9.15268 6.92236 9.33401 6.91013C9.43556 6.90401 9.55161 6.88566 9.58787 6.86731C9.63139 6.84284 9.97955 6.78167 10.3712 6.7205ZM9.11641 7.05694C9.11641 7.08753 9.05839 7.11812 8.99311 7.11812C8.88431 7.11812 8.87706 7.10588 8.97135 7.05694C9.10916 6.98354 9.11641 6.98354 9.11641 7.05694ZM13.3958 7.24046C13.2798 7.30163 12.9099 7.3261 12.9751 7.27105C12.9969 7.2527 13.0912 7.22211 13.1782 7.20987C13.2653 7.19764 13.3596 7.16705 13.3813 7.1487C13.4031 7.13035 13.4393 7.13035 13.4611 7.15482C13.4829 7.17317 13.4538 7.20987 13.3958 7.24046ZM11.51 8.01735C11.51 8.37215 11.4229 8.31098 11.3794 7.93783C11.3649 7.74819 11.3794 7.66867 11.4302 7.69925C11.4737 7.71761 11.51 7.86442 11.51 8.01735ZM11.4882 8.62907C11.4665 8.69025 11.452 8.64131 11.452 8.52508C11.452 8.40885 11.4665 8.35992 11.4882 8.41497C11.5027 8.47614 11.5027 8.57402 11.4882 8.62907ZM11.5608 8.96552C11.539 9.00834 11.5245 8.97776 11.5245 8.89212C11.5245 8.80647 11.539 8.77589 11.5608 8.81259C11.5753 8.85541 11.5753 8.92882 11.5608 8.96552ZM11.2561 9.50384C11.2779 9.53443 11.2634 9.56501 11.2271 9.56501C11.1836 9.56501 11.1473 9.53443 11.1473 9.50384C11.1473 9.46714 11.1618 9.44267 11.1763 9.44267C11.1981 9.44267 11.2344 9.46714 11.2561 9.50384ZM9.06564 10.6416C9.0874 10.6661 9.06564 10.7518 9.01487 10.8435C8.95684 10.9292 8.89156 11.1188 8.86255 11.2595C8.83354 11.4063 8.79002 11.5225 8.761 11.5225C8.72474 11.5225 8.75375 11.3145 8.81178 11.0637C8.91332 10.6294 8.95684 10.556 9.06564 10.6416ZM14.4144 9.7351H15.0317L14.0758 9.7804L14.4144 9.7351ZM16.7694 9.57652L17.0438 9.55387L16.7923 9.59918H16.7008L16.7694 9.57652Z" fill="white"/>
</svg>
