<svg width="24" height="24" viewBox="0 0 24 24" fill="none" xmlns="http://www.w3.org/2000/svg">
<path d="M16.1308 3.18554C13.4008 2.72787 10.599 2.72787 7.86906 3.18554C6.87171 3.35274 6.07745 4.11841 5.87748 5.11118C4.96136 9.65927 4.91137 14.3393 5.73014 18.906L6.06349 20.7652C6.16628 21.3385 6.86519 21.5676 7.28745 21.1665L11.3112 17.344C11.6971 16.9773 12.3027 16.9773 12.6887 17.344L16.7124 21.1665C17.1346 21.5676 17.8335 21.3385 17.9363 20.7652L18.2697 18.906C19.0884 14.3394 19.0385 9.65927 18.1223 5.11118C17.9224 4.11841 17.1281 3.35274 16.1308 3.18554Z" fill="white"/>
</svg>
