<svg width="24" height="24" viewBox="0 0 24 24" fill="none" xmlns="http://www.w3.org/2000/svg">
<path d="M12.7682 3.35982C12.5782 3.13182 12.2968 3 12 3C11.7032 3 11.4218 3.13182 11.2318 3.35982L6.83997 8.62998L3.6 6.2C3.29698 5.97274 2.89157 5.93618 2.55279 6.10557C2.214 6.27496 2 6.62123 2 7V16C2 16.5523 2.44772 17 3 17H21C21.5523 17 22 16.5523 22 16V7C22 6.62123 21.786 6.27496 21.4472 6.10557C21.1084 5.93618 20.703 5.97274 20.4 6.2L17.16 8.62998L12.7682 3.35982Z" fill="white"/>
<path d="M3 19C2.44772 19 2 19.4477 2 20C2 20.5523 2.44772 21 3 21H21C21.5523 21 22 20.5523 22 20C22 19.4477 21.5523 19 21 19H3Z" fill="white"/>
</svg>
