<svg width="24" height="24" viewBox="0 0 24 24" fill="none" xmlns="http://www.w3.org/2000/svg">
<path d="M2 5C2 3.34315 3.34315 2 5 2H19C20.6569 2 22 3.34315 22 5V19C22 20.6569 20.6569 22 19 22H6.50572L10.8991 17.6066L12.3133 19.0208C12.8759 19.5834 13.639 19.8995 14.4346 19.8995C15.2303 19.8995 15.9934 19.5834 16.556 19.0208L19.3844 16.1924C20.556 15.0208 20.556 13.1213 19.3844 11.9497L12.3133 4.87868C11.7507 4.31607 10.9877 4 10.192 4C9.39636 4 8.6333 4.31607 8.07069 4.87868L5.24226 7.70711C4.67965 8.26972 4.36358 9.03278 4.36358 9.82843C4.36358 10.6241 4.67965 11.3871 5.24226 11.9497L6.65647 13.364L2 18.0204V5Z" fill="white"/>
<path d="M2.5353 20.7108C2.53956 20.4606 2.63714 20.2117 2.82805 20.0208L9.4849 13.364L6.65647 10.5355C6.46894 10.348 6.36358 10.0936 6.36358 9.82843C6.36358 9.56321 6.46894 9.30886 6.65647 9.12132L9.4849 6.29289C9.50834 6.26945 9.53283 6.24729 9.55825 6.22646C9.7362 6.08066 9.95994 6 10.192 6C10.2086 6 10.2251 6.00041 10.2416 6.00123C10.4888 6.01349 10.7233 6.11708 10.8991 6.29289L17.9702 13.364C18.3607 13.7545 18.3607 14.3876 17.9702 14.7782L15.1418 17.6066C14.9542 17.7941 14.6999 17.8995 14.4346 17.8995C14.1694 17.8995 13.9151 17.7941 13.7275 17.6066L10.8991 14.7782L4.24256 21.4347C3.85203 21.8253 3.21857 21.8256 2.82805 21.435C2.62844 21.2354 2.53085 20.9724 2.5353 20.7108Z" fill="white"/>
</svg>
