<svg width="24" height="24" viewBox="0 0 24 24" fill="none" xmlns="http://www.w3.org/2000/svg">
<path d="M15.5 12C15.5 12.5523 15.9477 13 16.5 13C17.0523 13 17.5 12.5523 17.5 12C17.5 11.3267 17.7102 10.2945 18.3115 9.45931C18.8761 8.67513 19.8259 8 21.5 8C22.0523 8 22.5 7.55229 22.5 7C22.5 6.44772 22.0523 6 21.5 6C20.8267 6 19.7945 5.78978 18.9593 5.18847C18.1751 4.62386 17.5 3.67408 17.5 2C17.5 1.44772 17.0523 1 16.5 1C15.9477 1 15.5 1.44772 15.5 2C15.5 2.67331 15.2898 3.70554 14.6885 4.5407C14.1239 5.32487 13.1741 6 11.5 6C10.9477 6 10.5 6.44772 10.5 7C10.5 7.55228 10.9477 8 11.5 8C12.1733 8 13.2055 8.21022 14.0407 8.81153C14.8249 9.37614 15.5 10.3259 15.5 12Z" fill="white"/>
<path d="M6.5 12H2.5C1.94772 12 1.5 12.4477 1.5 13V22C1.5 22.5523 1.94772 23 2.5 23H5.5C6.05228 23 6.5 22.5523 6.5 22V12Z" fill="white"/>
<path d="M7.5 21.6114V12C7.63543 12 8.76944 12.0275 8.89392 12.0809L14.0757 14.3016C15.184 14.7766 15.9987 15.7149 16.3328 16.8333H13.739L11.2268 15.5544C10.9808 15.4291 10.6797 15.5271 10.5544 15.7732C10.4291 16.0192 10.5271 16.3203 10.7732 16.4456L13.3922 17.7789C13.4625 17.8147 13.5402 17.8333 13.619 17.8333H19.9048C20.1452 17.8333 20.5435 17.9302 20.8765 18.2353C21.0454 18.3901 21.2109 18.6109 21.3289 18.9262C21.4384 19.2436 21.5 19.6014 21.5 20C21.5 20.4465 21.204 20.8389 20.7747 20.9615L13.7747 22.9615C13.5952 23.0128 13.4048 23.0128 13.2253 22.9615L7.5 21.6114Z" fill="white"/>
</svg>
