<svg width="24" height="24" viewBox="0 0 24 24" fill="none" xmlns="http://www.w3.org/2000/svg">
<path d="M12.7071 3.29289C12.3166 2.90237 11.6834 2.90237 11.2929 3.29289L8.58579 6H5C4.44772 6 4 6.44772 4 7V9.58579L1.29289 12.2929C0.902369 12.6834 0.902369 13.3166 1.29289 13.7071L3.29289 15.7071C3.68342 16.0976 4.31658 16.0976 4.70711 15.7071C5.09763 15.3166 5.09763 14.6834 4.70711 14.2929L3.41421 13L5.70711 10.7071C5.89464 10.5196 6 10.2652 6 10V8H9C9.26522 8 9.51957 7.89464 9.70711 7.70711L12 5.41421L14.2929 7.70711C14.4804 7.89464 14.7348 8 15 8H18V10C18 10.2652 18.1054 10.5196 18.2929 10.7071L20.5858 13L19.2929 14.2929C18.9024 14.6834 18.9024 15.3166 19.2929 15.7071C19.6834 16.0976 20.3166 16.0976 20.7071 15.7071L22.7071 13.7071C23.0976 13.3166 23.0976 12.6834 22.7071 12.2929L20 9.58579V7C20 6.44772 19.5523 6 19 6H15.4142L12.7071 3.29289Z" fill="white"/>
<path d="M11.552 20.8941C11.552 20.8941 11.5528 20.8944 12 20L12.4472 20.8944C12.1657 21.0352 11.8336 21.0348 11.552 20.8941Z" fill="white"/>
<path d="M11.5492 20.8927L11.552 20.8941L12 20C12.4472 20.8944 12.4488 20.8936 12.4488 20.8936L12.4508 20.8927L12.4558 20.8901L12.4701 20.8828C12.4816 20.8768 12.4968 20.8689 12.5155 20.8589C12.5529 20.839 12.6044 20.8108 12.668 20.7745C12.795 20.7019 12.971 20.5962 13.1797 20.4571C13.5954 20.1799 14.1499 19.7643 14.7071 19.2071C15.8161 18.0981 17 16.3588 17 14V12C17 11.4477 16.5523 11 16 11C15.5091 11 15.1786 10.9944 14.7464 10.8215C14.2938 10.6405 13.6548 10.2406 12.7071 9.29289C12.3166 8.90237 11.6834 8.90237 11.2929 9.29289C10.3452 10.2406 9.70617 10.6405 9.25361 10.8215C8.82136 10.9944 8.49086 11 8 11C7.44772 11 7 11.4477 7 12V14C7 16.3588 8.1839 18.0981 9.29289 19.2071C9.8501 19.7643 10.4046 20.1799 10.8203 20.4571C11.029 20.5962 11.205 20.7019 11.332 20.7745C11.3956 20.8108 11.4471 20.839 11.4845 20.8589C11.4974 20.8658 11.5087 20.8717 11.5182 20.8767C11.5224 20.8789 11.5263 20.8809 11.5299 20.8828L11.5442 20.8901L11.5492 20.8927Z" fill="white"/>
</svg>
