<svg width="24" height="24" viewBox="0 0 24 24" fill="none" xmlns="http://www.w3.org/2000/svg">
<path fill-rule="evenodd" clip-rule="evenodd" d="M18.1676 3.00414C17.7771 2.61361 17.1439 2.61361 16.7534 3.00414C16.3629 3.39466 16.3629 4.02783 16.7534 4.41835L17.4605 5.12546L11.925 10.661L10.05 8.78605C8.44488 7.1809 5.70752 7.87104 5.05523 10.0453L2.84204 17.4226C2.15552 19.711 4.28915 21.8447 6.57757 21.1581L13.9548 18.9449C16.1291 18.2927 16.8193 15.5553 15.2141 13.9501L13.3392 12.0752L18.8747 6.53967L19.5818 7.24678C19.9723 7.6373 20.6055 7.6373 20.996 7.24678C21.3866 6.85625 21.3866 6.22309 20.996 5.83256L18.1676 3.00414ZM9.48884 15.8829L12.196 13.1757L10.7817 11.7615L8.07463 14.4686C7.68411 14.8592 7.68411 15.4923 8.07463 15.8829C8.46516 16.2734 9.09832 16.2734 9.48884 15.8829Z" fill="white"/>
</svg>
