<svg width="24" height="24" viewBox="0 0 24 24" fill="none" xmlns="http://www.w3.org/2000/svg">
<path d="M12.865 2.99622C12.4796 2.33207 11.5205 2.33207 11.1351 2.99622L8.42107 7.67353C8.2307 8.00161 7.90165 8.22551 7.52659 8.28215L2.44027 9.05038C1.58599 9.17941 1.28633 10.258 1.95164 10.8092L5.74073 13.9484C6.09147 14.239 6.25639 14.6974 6.17119 15.1448L5.18002 20.35C5.02334 21.1728 5.88712 21.8121 6.62827 21.4219L11.4177 18.9C11.7822 18.7081 12.2179 18.7081 12.5824 18.9L17.3718 21.4219C18.113 21.8121 18.9768 21.1728 18.8201 20.35L17.8289 15.1448C17.7437 14.6974 17.9087 14.239 18.2594 13.9484L22.0485 10.8092C22.7138 10.258 22.4141 9.17941 21.5598 9.05038L16.4735 8.28215C16.0985 8.22551 15.7694 8.00161 15.579 7.67353L12.865 2.99622Z" fill="white"/>
</svg>
