<svg width="24" height="24" viewBox="0 0 24 24" fill="none" xmlns="http://www.w3.org/2000/svg">
<path d="M11.2321 1.86829C11.4973 1.86829 11.7517 1.97364 11.9392 2.16118L21.8387 12.0607C22.2292 12.4512 22.2292 13.0844 21.8387 13.4749L17.5961 17.7175C17.4085 17.9051 17.1542 18.0104 16.889 18.0104C16.6238 18.0104 16.3694 17.9051 16.1819 17.7175L13.3534 14.8891L13.3421 14.9004L9.0995 10.6578L9.1108 10.6465L6.28238 7.81803C5.89185 7.42751 5.89185 6.79434 6.28238 6.40382L10.525 2.16118C10.7126 1.97364 10.9669 1.86829 11.2321 1.86829Z" fill="white"/>
<path d="M8.39239 11.3649L2.74684 17.0104C1.57527 18.182 1.57527 20.0815 2.74684 21.2531C3.91842 22.4246 5.81791 22.4246 6.98948 21.2531L12.635 15.6075L8.39239 11.3649Z" fill="white"/>
</svg>
