<svg width="24" height="24" viewBox="0 0 24 24" fill="none" xmlns="http://www.w3.org/2000/svg">
<path fill-rule="evenodd" clip-rule="evenodd" d="M14.3398 10.6804C15.5511 10.6862 16.2807 9.91939 16.1038 8.60332C16.0236 7.7911 16.4122 6.96841 17.1651 6.53321L20.1475 4.81103C20.5408 5.49292 20.5175 6.30048 20.1568 6.94048L20.2918 7.20463L20.2953 7.21045C20.7886 8.0727 20.6164 9.13743 19.9392 9.80419L19.9706 9.86586L19.9741 9.87168C20.5501 10.8759 20.2219 12.1536 19.2445 12.7598C19.0025 13.9118 17.9808 14.7776 16.7578 14.7776C15.8385 14.7776 15.0333 14.2888 14.5876 13.5557C14.3258 13.6756 14.1175 13.8478 13.9907 14.0957C15.3114 14.2877 15.7478 15.6445 15.4522 16.395L15.8071 16.7499C16.3633 16.2181 17.2465 16.2263 17.7934 16.7732C17.7934 16.7744 17.7946 16.7744 17.7946 16.7744L15.6686 18.9003L15.0752 18.308L13.0726 16.3043L14.3724 19.5182L12.0009 20.7272L9.62821 19.5182L10.928 16.3054L10.2065 17.0362L10.1996 17.0339L8.33192 18.9003L6.20596 16.7744C6.20596 16.7744 6.20712 16.7744 6.20712 16.7732C6.75403 16.2263 7.63723 16.2181 8.19345 16.7499L8.5565 16.388C8.26676 15.6375 8.70079 14.2935 10.0099 14.0968C9.88421 13.849 9.67592 13.6756 9.41294 13.5557C8.96727 14.2888 8.16203 14.7776 7.24276 14.7776C6.01978 14.7776 4.99811 13.9118 4.75723 12.7598C3.77745 12.1524 3.44931 10.8712 4.02996 9.86586L4.06138 9.80419C3.38182 9.13626 3.21076 8.06805 3.7088 7.20463L3.84378 6.94048C3.48305 6.30048 3.45978 5.49292 3.85309 4.81103L6.83549 6.53321C7.58836 6.96841 7.97701 7.7911 7.89672 8.60332C7.71985 9.91939 8.44945 10.6862 9.66079 10.6804C10.1193 10.6478 10.4823 10.265 10.4823 9.79837C10.4823 9.70295 10.4672 9.61103 10.4393 9.52492C10.3648 9.35852 10.2426 9.21888 10.0902 9.1223C8.4925 9.02688 8.43432 7.34776 8.43432 7.34543H11.5086L11.1642 7.88186C11.5412 8.1751 11.8333 8.57074 12.0009 9.02688C12.1673 8.57074 12.4593 8.1751 12.8364 7.88186L12.4919 7.34543H15.5662C15.5662 7.34776 15.5081 9.02688 13.9104 9.1223C13.758 9.21888 13.6358 9.35852 13.5613 9.52492C13.5334 9.61103 13.5182 9.70295 13.5182 9.79837C13.5182 10.265 13.8813 10.6478 14.3398 10.6804ZM12.9073 4.18034C13.1994 4.02441 13.5264 3.93365 13.8324 3.93365L13.5229 6.25976H10.4765L10.1681 3.93365C10.4742 3.93365 10.8012 4.02441 11.0932 4.18034L12.0009 3.27271L12.9073 4.18034Z" fill="white"/>
</svg>
