<svg width="24" height="24" viewBox="0 0 24 24" fill="none" xmlns="http://www.w3.org/2000/svg">
<path d="M16.7815 2.39006C16.391 1.99954 15.7578 1.99954 15.3673 2.39006C14.9768 2.78059 14.9768 3.41375 15.3673 3.80427L17.0744 5.51138L10.0033 12.5824L7.88199 10.4611C7.49147 10.0706 6.85831 10.0706 6.46778 10.4611L3.63935 13.2896C3.0548 13.8741 2.36325 14.9048 2.15737 16.1694C1.9414 17.4961 2.27752 18.9988 3.63935 20.3606C5.00118 21.7225 6.50385 22.0586 7.83054 21.8426C9.09522 21.6367 10.1259 20.9452 10.7104 20.3606L13.5388 17.5322C13.9294 17.1417 13.9294 16.5085 13.5388 16.118L11.4175 13.9967L18.4886 6.9256L20.1957 8.6327C20.5862 9.02323 21.2194 9.02323 21.6099 8.6327C22.0004 8.24218 22.0004 7.60901 21.6099 7.21849L16.7815 2.39006Z" fill="white"/>
</svg>
