<svg width="24" height="24" viewBox="0 0 24 24" fill="none" xmlns="http://www.w3.org/2000/svg">
<path d="M19.6679 5.81599C18.4406 4.57154 17.0616 3.17327 15.3285 2.43052C13.2531 1.5411 10.8117 1.61927 7.64696 3.27702C7.23925 3.49058 7.02996 3.95485 7.13993 4.40178C7.2499 4.84871 7.65072 5.16286 8.11098 5.16285C8.9184 5.16284 10.1343 5.382 11.1135 5.99886C11.9591 6.53154 12.6406 7.3593 12.7519 8.71427L9.8788 11.5874L9.52524 11.2339C9.16494 10.8735 8.59133 10.8418 8.19344 11.1601L1.12238 16.8169C0.900265 16.9946 0.764332 17.2585 0.748602 17.5425C0.732873 17.8265 0.838834 18.1038 1.03997 18.3049L4.5755 21.8405C4.77663 22.0416 5.0539 22.1475 5.33791 22.1318C5.62191 22.1161 5.88578 21.9802 6.06348 21.758L11.7203 14.687C12.0386 14.2891 12.0069 13.7155 11.6466 13.3552L11.293 13.0016L14.2903 10.0043C14.6455 9.92534 15.0465 9.92898 15.3337 10.063C15.5565 10.167 15.9498 10.4543 15.9498 11.5875C15.9498 11.8527 16.0552 12.107 16.2427 12.2946L18.0105 14.0623C18.401 14.4529 19.0341 14.4529 19.4247 14.0623L22.9602 10.5268C23.3507 10.1363 23.3507 9.50312 22.9602 9.1126L21.546 7.69839C21.3585 7.51085 21.1041 7.40549 20.8389 7.40549H20.4247V6.99128C20.4247 6.72607 20.3193 6.47172 20.1318 6.28418C19.9794 6.13182 19.8248 5.97507 19.6679 5.81599Z" fill="white"/>
</svg>
