<svg width="24" height="24" viewBox="0 0 24 24" fill="none" xmlns="http://www.w3.org/2000/svg">
<path d="M3.5 7.5C3.5 8.05228 3.94772 8.5 4.5 8.5C5.05228 8.5 5.5 8.05228 5.5 7.5C5.5 7.16002 5.61022 6.6278 5.91153 6.2093C6.17614 5.8418 6.62592 5.5 7.5 5.5C8.05228 5.5 8.5 5.05228 8.5 4.5C8.5 3.94772 8.05228 3.5 7.5 3.5C7.16002 3.5 6.6278 3.38978 6.2093 3.08847C5.8418 2.82386 5.5 2.37408 5.5 1.5C5.5 0.947715 5.05228 0.5 4.5 0.5C3.94772 0.5 3.5 0.947715 3.5 1.5C3.5 2.37408 3.1582 2.82386 2.7907 3.08847C2.3722 3.38978 1.83998 3.5 1.5 3.5C0.947715 3.5 0.5 3.94772 0.5 4.5C0.5 5.05228 0.947715 5.5 1.5 5.5C2.37408 5.5 2.82386 5.8418 3.08847 6.2093C3.38978 6.6278 3.5 7.16002 3.5 7.5Z" fill="white"/>
<path d="M11.5 20.5C11.5 21.0523 11.9477 21.5 12.5 21.5C13.0523 21.5 13.5 21.0523 13.5 20.5C13.5 19.3267 13.8602 17.5445 14.9115 16.0843C15.9261 14.6751 17.6259 13.5 20.5 13.5C21.0523 13.5 21.5 13.0523 21.5 12.5C21.5 11.9477 21.0523 11.5 20.5 11.5C19.3267 11.5 17.5445 11.1398 16.0843 10.0885C14.6751 9.07386 13.5 7.37408 13.5 4.5C13.5 3.94772 13.0523 3.5 12.5 3.5C11.9477 3.5 11.5 3.94772 11.5 4.5C11.5 5.67331 11.1398 7.45553 10.0885 8.9157C9.07386 10.3249 7.37408 11.5 4.5 11.5C3.94772 11.5 3.5 11.9477 3.5 12.5C3.5 13.0523 3.94772 13.5 4.5 13.5C5.67331 13.5 7.45553 13.8602 8.9157 14.9115C10.3249 15.9261 11.5 17.6259 11.5 20.5Z" fill="white"/>
<path d="M19 22.5C19 23.0523 19.4477 23.5 20 23.5C20.5523 23.5 21 23.0523 21 22.5C21 22.2434 21.0852 21.8361 21.3115 21.5218C21.5011 21.2585 21.8259 21 22.5 21C23.0523 21 23.5 20.5523 23.5 20C23.5 19.4477 23.0523 19 22.5 19C22.2434 19 21.8361 18.9148 21.5218 18.6885C21.2585 18.4989 21 18.1741 21 17.5C21 16.9477 20.5523 16.5 20 16.5C19.4477 16.5 19 16.9477 19 17.5C19 18.1741 18.7415 18.4989 18.4782 18.6885C18.1639 18.9148 17.7566 19 17.5 19C16.9477 19 16.5 19.4477 16.5 20C16.5 20.5523 16.9477 21 17.5 21C18.1741 21 18.4989 21.2585 18.6885 21.5218C18.9148 21.8361 19 22.2434 19 22.5Z" fill="white"/>
</svg>
