<svg width="24" height="24" viewBox="0 0 24 24" fill="none" xmlns="http://www.w3.org/2000/svg">
<path fill-rule="evenodd" clip-rule="evenodd" d="M2 5C2 3.34315 3.34315 2 5 2H7C7.55228 2 8 2.44772 8 3C8 3.55228 7.55228 4 7 4H5C4.44772 4 4 4.44772 4 5V7C4 7.55228 3.55228 8 3 8C2.44772 8 2 7.55228 2 7V5ZM16 3C16 2.44772 16.4477 2 17 2H19C20.6569 2 22 3.34315 22 5V7C22 7.55228 21.5523 8 21 8C20.4477 8 20 7.55228 20 7V5C20 4.44772 19.5523 4 19 4H17C16.4477 4 16 3.55228 16 3ZM8 7C8.55228 7 9 7.44772 9 8V10C9 10.5523 8.55228 11 8 11C7.44772 11 7 10.5523 7 10V8C7 7.44772 7.44772 7 8 7ZM16 7C16.5523 7 17 7.44772 17 8V10C17 10.5523 16.5523 11 16 11C15.4477 11 15 10.5523 15 10V8C15 7.44772 15.4477 7 16 7ZM12 9C12.5523 9 13 9.44772 13 10V12C13 13.6569 11.6569 15 10 15H9C8.44772 15 8 14.5523 8 14C8 13.4477 8.44772 13 9 13H10C10.5523 13 11 12.5523 11 12V10C11 9.44772 11.4477 9 12 9ZM16.2425 14.0299C16.7783 14.1638 17.1041 14.7067 16.9701 15.2425C16.6618 16.4758 15.1205 18 12 18C11.4477 18 11 17.5523 11 17C11 16.4477 11.4477 16 12 16C14.4795 16 15.0048 14.8575 15.0299 14.7575C15.1638 14.2217 15.7067 13.8959 16.2425 14.0299ZM3 16C3.55228 16 4 16.4477 4 17V19C4 19.5523 4.44772 20 5 20H7C7.55228 20 8 20.4477 8 21C8 21.5523 7.55228 22 7 22H5C3.34315 22 2 20.6569 2 19V17C2 16.4477 2.44772 16 3 16ZM21 16C21.5523 16 22 16.4477 22 17V19C22 20.6569 20.6569 22 19 22H17C16.4477 22 16 21.5523 16 21C16 20.4477 16.4477 20 17 20H19C19.5523 20 20 19.5523 20 19V17C20 16.4477 20.4477 16 21 16Z" fill="white"/>
</svg>
