<svg width="24" height="24" viewBox="0 0 24 24" fill="none" xmlns="http://www.w3.org/2000/svg">
<path d="M8.5 10C8.77614 10 9 10.2239 9 10.5V12H8V10.5C8 10.2239 8.22386 10 8.5 10Z" fill="white"/>
<path d="M15 13.5C15 13.2239 15.2239 13 15.5 13H16V14H15.5C15.2239 14 15 13.7761 15 13.5Z" fill="white"/>
<path fill-rule="evenodd" clip-rule="evenodd" d="M5 4C3.34315 4 2 5.34315 2 7V17C2 18.6569 3.34315 20 5 20H19C20.6569 20 22 18.6569 22 17V7C22 5.34315 20.6569 4 19 4H5ZM8.5 8C7.11929 8 6 9.11929 6 10.5V15C6 15.5523 6.44772 16 7 16C7.55228 16 8 15.5523 8 15V14H9V15C9 15.5523 9.44772 16 10 16C10.5523 16 11 15.5523 11 15V10.5C11 9.11929 9.88071 8 8.5 8ZM18 9C18 8.44772 17.5523 8 17 8C16.4477 8 16 8.44772 16 9V11H15.5C14.1193 11 13 12.1193 13 13.5C13 14.8807 14.1193 16 15.5 16H17C17.5523 16 18 15.5523 18 15V9Z" fill="white"/>
</svg>
