<svg width="24" height="24" viewBox="0 0 24 24" fill="none" xmlns="http://www.w3.org/2000/svg">
<path fill-rule="evenodd" clip-rule="evenodd" d="M3 10C3 7.79086 4.79086 6 7 6C9.20914 6 11 7.79086 11 10V17C11 17.5523 10.5523 18 10 18C9.44772 18 9 17.5523 9 17V14H5V17C5 17.5523 4.55228 18 4 18C3.44772 18 3 17.5523 3 17V10ZM5 12H9V10C9 8.89543 8.10457 8 7 8C5.89543 8 5 8.89543 5 10V12ZM13 7C13 6.44772 13.4477 6 14 6H16C18.7614 6 21 8.23858 21 11V13C21 15.7614 18.7614 18 16 18H14C13.4477 18 13 17.5523 13 17V7ZM15 8V16H16C17.6569 16 19 14.6569 19 13V11C19 9.34315 17.6569 8 16 8H15Z" fill="white"/>
</svg>
