<svg width="24" height="24" viewBox="0 0 24 24" fill="none" xmlns="http://www.w3.org/2000/svg">
<path d="M17.5 2.5C17.5 1.94772 17.0523 1.5 16.5 1.5C15.9477 1.5 15.5 1.94772 15.5 2.5C15.5 3.17331 15.2898 4.20554 14.6885 5.0407C14.1239 5.82487 13.1741 6.5 11.5 6.5C10.9477 6.5 10.5 6.94772 10.5 7.5C10.5 8.05228 10.9477 8.5 11.5 8.5C12.1733 8.5 13.2055 8.71022 14.0407 9.31153C14.8249 9.87614 15.5 10.8259 15.5 12.5C15.5 13.0523 15.9477 13.5 16.5 13.5C17.0523 13.5 17.5 13.0523 17.5 12.5C17.5 10.8259 18.1751 9.87614 18.9593 9.31153C19.7945 8.71022 20.8267 8.5 21.5 8.5C22.0523 8.5 22.5 8.05228 22.5 7.5C22.5 6.94772 22.0523 6.5 21.5 6.5C19.8259 6.5 18.8761 5.82487 18.3115 5.0407C17.7102 4.20554 17.5 3.17331 17.5 2.5Z" fill="white"/>
<path fill-rule="evenodd" clip-rule="evenodd" d="M11.5 4.5H4.5C2.84315 4.5 1.5 5.84315 1.5 7.5V19.5C1.5 21.1569 2.84315 22.5 4.5 22.5H16.5C18.1569 22.5 19.5 21.1569 19.5 19.5V12.5C19.5 14.1569 18.1569 15.5 16.5 15.5C15.6115 15.5 14.8132 15.1137 14.2639 14.5H6.5C5.94772 14.5 5.5 14.0523 5.5 13.5C5.5 12.9477 5.94772 12.5 6.5 12.5H13.5C13.5 11.9283 13.3842 11.5951 13.287 11.4066C13.1885 11.2158 13.0529 11.0648 12.8721 10.9346C12.4499 10.6307 11.8533 10.5 11.5 10.5H6.5C5.94772 10.5 5.5 10.0523 5.5 9.5C5.5 8.94772 5.94772 8.5 6.5 8.5H8.67071C8.56015 8.18722 8.5 7.85064 8.5 7.5C8.5 5.84315 9.84315 4.5 11.5 4.5ZM6.5 16.5C5.94772 16.5 5.5 16.9477 5.5 17.5C5.5 18.0523 5.94772 18.5 6.5 18.5H10.5C11.0523 18.5 11.5 18.0523 11.5 17.5C11.5 16.9477 11.0523 16.5 10.5 16.5H6.5Z" fill="white"/>
</svg>
