<svg width="20" height="20" viewBox="0 0 20 20" fill="none" xmlns="http://www.w3.org/2000/svg">
<path fill-rule="evenodd" clip-rule="evenodd" d="M8.20661 2.56471C8.94023 1.07822 11.0599 1.07822 11.7936 2.56471L13.4561 5.93345L17.1738 6.47366C18.8142 6.71203 19.4692 8.72797 18.2822 9.88504L15.5921 12.5072L16.2271 16.2098C16.5073 17.8437 14.7925 19.0896 13.3252 18.3182L10.0001 16.5701L6.67493 18.3182C5.20768 19.0896 3.49281 17.8437 3.77303 16.2098L4.40808 12.5072L1.71798 9.88504C0.530944 8.72797 1.18597 6.71203 2.82641 6.47366L6.54403 5.93345L8.20661 2.56471ZM11.6627 6.81859L10.0001 3.44984L8.33751 6.81859C8.04618 7.40887 7.48305 7.81801 6.83163 7.91267L3.114 8.45287L5.8041 11.0751C6.27547 11.5345 6.49057 12.1965 6.3793 12.8453L5.74425 16.5479L9.0694 14.7998C9.65204 14.4935 10.3481 14.4935 10.9308 14.7998L14.2559 16.5479L13.6209 12.8453C13.5096 12.1965 13.7247 11.5345 14.1961 11.0751L16.8862 8.45287L13.1685 7.91267C12.5171 7.81801 11.954 7.40887 11.6627 6.81859Z" fill="white"/>
</svg>
