<svg width="16" height="16" viewBox="0 0 16 16" fill="none" xmlns="http://www.w3.org/2000/svg">
<path fill-rule="evenodd" clip-rule="evenodd" d="M13.2869 2.213C13.4659 2.079 13.6879 2 13.9279 2C14.5199 2 15.0009 2.481 15.0009 3.073V12.927C15.0009 13.519 14.5199 14 13.9279 14C13.6879 14 13.4659 13.921 13.2869 13.787C13.2799 13.782 13.2739 13.777 13.2679 13.772L9.00093 10.507V12.927C9.00093 13.519 8.51993 14 7.92793 14C7.68793 14 7.46593 13.921 7.28693 13.787C7.27993 13.782 7.27393 13.777 7.26793 13.772L0.869932 8.875C0.861932 8.87 0.853932 8.864 0.846932 8.858C0.592932 8.658 0.429932 8.348 0.429932 8C0.429932 7.642 0.602932 7.324 0.869932 7.125L7.26793 2.228C7.27393 2.223 7.27993 2.218 7.28693 2.213C7.46593 2.079 7.68793 2 7.92793 2C8.51993 2 9.00093 2.481 9.00093 3.073V5.493L13.2679 2.228C13.2739 2.223 13.2799 2.218 13.2869 2.213Z" fill="white"/>
</svg>
