<svg width="24" height="24" viewBox="0 0 24 24" fill="none" xmlns="http://www.w3.org/2000/svg">
<path fill-rule="evenodd" clip-rule="evenodd" d="M15.2982 5.04505C12.4669 2.21374 7.87641 2.21374 5.04511 5.04505C2.21381 7.87635 2.21381 12.4668 5.04511 15.2981C7.57509 17.8281 11.5091 18.0972 14.3383 16.106L19.1872 20.9549C19.6754 21.4431 20.4668 21.4431 20.955 20.9549C21.4431 20.4668 21.4431 19.6753 20.955 19.1872L16.1061 14.3382C18.0973 11.509 17.8281 7.57502 15.2982 5.04505ZM13.5304 6.81281C11.6754 4.95782 8.66786 4.95782 6.81287 6.81281C4.95788 8.6678 4.95788 11.6753 6.81287 13.5303C8.66638 15.3838 11.6706 15.3853 13.5259 13.5348L13.5304 13.5303L13.5345 13.5262C15.3854 11.6709 15.384 8.66644 13.5304 6.81281Z" fill="white"/>
</svg>
